<svg width="32" height="32" viewBox="0 0 32 32" fill="none" xmlns="http://www.w3.org/2000/svg">
<rect width="32" height="32" fill="#E5E5E5"/>
<g id="Software Agency Landing Page" clip-path="url(#clip0_0_1)">
<rect width="1440" height="5437" transform="translate(-144 -2432)" fill="white"/>
<g id="Group 1869">
<rect id="Rectangle 612" x="-23.5" y="-23.5" width="449" height="79" fill="white" stroke="#F2F2F2"/>
<circle id="Ellipse 165" cx="16" cy="16" r="26" fill="#FF9F34" fill-opacity="0.08"/>
<g id="9">
<g id="Group">
<path id="Vector" d="M18.3867 11.5866C18.3867 11.5866 17.0267 10.3866 14.64 11.2266C12.44 11.9866 12.5467 14.9999 15.88 15.7999" stroke="#FF9F34" stroke-width="1.6" stroke-miterlimit="10" stroke-linecap="round" stroke-linejoin="round"/>
<path id="Vector_2" d="M13.16 19.96C13.16 19.96 14.52 21.16 16.9067 20.32C19.12 19.5467 19.0134 16.5333 15.6667 15.7333" stroke="#FF9F34" stroke-width="1.6" stroke-miterlimit="10" stroke-linecap="round" stroke-linejoin="round"/>
<path id="Vector_3" d="M16.0133 10.9333V8.97327" stroke="#FF9F34" stroke-width="1.6" stroke-miterlimit="10" stroke-linecap="round" stroke-linejoin="round"/>
<path id="Vector_4" d="M16.0133 22.5733V20.6133" stroke="#FF9F34" stroke-width="1.6" stroke-miterlimit="10" stroke-linecap="round" stroke-linejoin="round"/>
</g>
<path id="Vector_5" d="M15.7733 28.08C22.5701 28.08 28.08 22.5702 28.08 15.7734C28.08 8.97659 22.5701 3.46671 15.7733 3.46671C8.97656 3.46671 3.46667 8.97659 3.46667 15.7734C3.46667 22.5702 8.97656 28.08 15.7733 28.08Z" stroke="#FF9F34" stroke-width="1.6" stroke-miterlimit="10" stroke-linecap="round" stroke-linejoin="round"/>
</g>
</g>
</g>
<defs>
<clipPath id="clip0_0_1">
<rect width="1440" height="5437" fill="white" transform="translate(-144 -2432)"/>
</clipPath>
</defs>
</svg>
